#!OML:ASF H:\Terrain\Patient Classification 1\Animal1\Tuesday\Animal1.ASF
:FULLY-SPECIFIED
:DEGREES
2915
root 5.68543 16.6384 3.56393 -351.754 -5.51701 1.26259
lowerback -6.61309 -2.55904 -0.642137
upperback -4.82249 -3.38397 0.367344
thorax -1.20941 -1.67997 0.552323
lowerneck 7.65123 -13.0128 -11.7367
upperneck -0.0291797 -18.2792 1.40656
head -0.0541623 -9.15131 2.59353
rclavicle -2.13818e-014 -6.36111e-015
rhumerus -28.6038 16.208 -82.6191
rradius 46.8363
rwrist -14.8825
rhand -19.6056 29.97
rfingers 7.12502
rthumb 6.72059 0.0966662
lclavicle -2.13818e-014 -6.36111e-015
lhumerus -40.8034 -2.55702 76.8824
lradius 53.482
lwrist -23.7159
lhand 7.78313 38.6143
lfingers 7.12502
lthumb 33.0208 425.61
rfemur -17.6455 29.826 14.5019
rtibia 27.6768
rfoot -26.3851 -41.7636
rtoes 26.4558
lfemur -9.93582 -29.3457 -15.1778
ltibia 18.6602
lfoot -20.8458 29.0264
ltoes 7.8352
2916
root 5.68603 16.6377 3.5683 -351.708 -5.62731 1.35809
lowerback -6.70645 -2.57946 -0.811213
upperback -4.93593 -3.40296 0.324154
thorax -1.26808 -1.68579 0.59998
lowerneck 8.01454 -13.1208 -12.2733
upperneck 0.242297 -18.5026 1.62228
head 0.0615074 -9.27913 2.74961
rclavicle 2.77553e-014 1.13307e-014
rhumerus -28.9193 16.2302 -82.8306
rradius 46.6665
rwrist -14.9079
rhand -19.9126 30.2878
rfingers 7.12502
rthumb 6.42419 0.405209
lclavicle 2.77553e-014 1.13307e-014
lhumerus -41.102 -2.21527 76.8771
lradius 53.1628
lwrist -24.1505
lhand 8.4844 38.4225
lfingers 7.12502
lthumb 33.6875 425.275
rfemur -17.6687 30.3166 14.3047
rtibia 27.5707
rfoot -26.9132 -41.9114
rtoes 27.2219
lfemur -9.918 -30.0389 -15.3103
ltibia 18.7176
lfoot -22.2423 29.1305
ltoes 11.1785
2917
root 5.68569 16.6409 3.56578 -351.533 -5.74201 1.22222
lowerback -6.76465 -2.58212 -0.740868
upperback -5.12083 -3.41095 0.325688
thorax -1.43132 -1.69082 0.564875
lowerneck 8.1052 -13.1939 -12.5442
upperneck 0.811877 -18.6214 1.53849
head 0.258325 -9.36154 2.7375
rclavicle -1.94809e-014 -8.94531e-015
rhumerus -29.3346 16.2314 -83.106
rradius 46.5266
rwrist -15.0347
rhand -20.1438 29.707
rfingers 7.12502
rthumb 6.201 -0.182242
lclavicle -1.94809e-014 -8.94531e-015
lhumerus -41.4039 -1.96131 76.9083
lradius 52.7558
lwrist -24.0845
lhand 8.64989 38.469
lfingers 7.12502
lthumb 33.8447 425.287
rfemur -17.8578 30.893 14.2868
rtibia 27.4569
rfoot -25.7446 -42.8818
rtoes 25.1152
lfemur -10.07 -30.4823 -15.1078
ltibia 18.7834
lfoot -23.8624 28.8176
ltoes 17.0476
2918
root 5.68532 16.6434 3.56369 -351.285 -5.87375 0.982267
lowerback -6.85666 -2.58666 -0.578868
upperback -5.29521 -3.4254 0.376953
thorax -1.56731 -1.70116 0.527466
lowerneck 7.78182 -13.2884 -12.3435
upperneck 1.56524 -18.6733 0.937372
head 0.479323 -9.40813 2.45421
rclavicle -1.14922e-014 7.35503e-015
rhumerus -29.6507 16.3132 -83.3754
rradius 46.2779
rwrist -15.118
rhand -20.2069 29.2267
rfingers 7.12502
rthumb 6.14007 -0.664309
lclavicle -1.14922e-014 7.35503e-015
lhumerus -41.6612 -1.6779 76.9904
lradius 52.1966
lwrist -23.8744
lhand 7.25774 38.3274
lfingers 7.12502
lthumb 32.521 425.427
rfemur -18.1414 31.6091 14.3157
rtibia 27.3548
rfoot -25.6518 -43.4569
rtoes 24.5491
lfemur -10.3192 -31.2168 -14.728
ltibia 18.8335
lfoot -24.9644 29.1743
ltoes 20.5478
2919
root 5.68404 16.6399 3.56507 -351.083 -6.01152 0.936442
lowerback -7.03499 -2.58782 -0.644707
upperback -5.42644 -3.42333 0.38377
thorax -1.60099 -1.69824 0.566491
lowerneck 7.81074 -13.3488 -12.1319
upperneck 1.85826 -18.734 0.518622
head 0.509207 -9.44356 2.28173
rclavicle -1.62258e-014 -7.25564e-015
rhumerus -29.8976 16.2047 -83.5901
rradius 45.9253
rwrist -14.8892
rhand -20.7891 29.3763
rfingers 7.12502
rthumb 5.57798 -0.530329
lclavicle -1.62258e-014 -7.25564e-015
lhumerus -41.8492 -1.47284 77.1194
lradius 51.5282
lwrist -23.8332
lhand 5.71837 38.0592
lfingers 7.12502
lthumb 31.0549 425.45
rfemur -18.3864 32.1305 14.1594
rtibia 27.2619
rfoot -28.5153 -42.4044
rtoes 29.4106
lfemur -10.5398 -32.2213 -14.5609
ltibia 18.9013
lfoot -25.0779 30.4009
ltoes 19.2118
2920
root 5.68276 16.6372 3.56669 -350.96 -6.11597 1.03253
lowerback -7.18718 -2.63264 -0.89302
upperback -5.55662 -3.47003 0.36809
thorax -1.63837 -1.71481 0.682345
lowerneck 8.16932 -13.3006 -12.104
upperneck 1.86986 -18.7151 0.450403
head 0.442471 -9.4333 2.28799
rclavicle -4.50993e-014 -3.67752e-015
rhumerus -30.1588 16.1338 -83.809
rradius 45.5308
rwrist -14.6239
rhand -21.0895 29.4819
rfingers 7.12502
rthumb 5.28797 -0.432105
lclavicle -4.50993e-014 -3.67752e-015
lhumerus -42.166 -1.22615 77.1594
lradius 51.0675
lwrist -23.81
lhand 5.85047 38.0597
lfingers 7.12502
lthumb 31.1808 425.427
rfemur -18.571 32.7358 13.8929
rtibia 27.203
rfoot -32.5091 -40.6871
rtoes 35.5367
lfemur -10.6501 -33.1614 -14.5942
ltibia 18.9469
lfoot -25.2751 31.4132
ltoes 17.5389
2921
root 5.68436 16.6362 3.57107 -350.857 -6.14363 1.06604
lowerback -7.32041 -2.71744 -1.01252
upperback -5.68794 -3.57653 0.341415
thorax -1.69434 -1.76491 0.712621
lowerneck 8.22976 -13.2468 -12.0557
upperneck 2.26688 -18.6378 0.297339
head 0.53597 -9.40964 2.22132
rclavicle 1.98785e-016 -1.53064e-014
rhumerus -30.4004 16.0863 -84.0995
rradius 45.0486
rwrist -14.3443
rhand -20.5825 29.5367
rfingers 7.12502
rthumb 5.77744 -0.364539
lclavicle 1.98785e-016 -1.53064e-014
lhumerus -42.6136 -0.814536 77.0648
lradius 50.6852
lwrist -23.8397
lhand 6.2957 38.2234
lfingers 7.12502
lthumb 31.605 425.508
rfemur -18.6958 33.5418 13.7031
rtibia 27.1885
rfoot -34.5964 -40.3144
rtoes 37.7398
lfemur -10.6883 -34.1077 -14.5963
ltibia 18.9458
lfoot -25.8153 32.2416
ltoes 16.8958
2922
root 5.68442 16.6319 3.5777 -350.777 -6.19256 0.922201
lowerback -7.42584 -2.75466 -0.938954
upperback -5.78799 -3.62968 0.347323
thorax -1.74341 -1.7934 0.672475
lowerneck 8.04809 -13.2529 -12.125
upperneck 2.90605 -18.6107 0.19059
head 0.768242 -9.42372 2.1514
rclavicle 1.07468e-014 -1.76918e-014
rhumerus -30.6875 15.8913 -84.4088
rradius 44.6527
rwrist -14.2288
rhand -20.5266 29.4192
rfingers 7.12502
rthumb 5.83139 -0.480561
lclavicle 1.07468e-014 -1.76918e-014
lhumerus -42.9282 -0.394637 76.9752
lradius 50.0348
lwrist -24.1539
lhand 6.92183 38.4783
lfingers 7.12502
lthumb 32.2013 425.644
rfemur -18.7086 34.169 13.765
rtibia 27.1143
rfoot -35.265 -40.4972
rtoes 38.3133
lfemur -10.7068 -35.053 -14.4336
ltibia 19.0495
lfoot -26.6553 32.9433
ltoes 18.2765
2923
root 5.68054 16.6285 3.58287 -350.715 -6.30733 0.794503
lowerback -7.45177 -2.75853 -0.992955
upperback -5.9032 -3.63241 0.411562
thorax -1.84165 -1.79137 0.770706
lowerneck 7.82865 -13.3142 -12.1911
upperneck 3.46231 -18.652 -0.0189886
head 0.973296 -9.46767 2.04937
rclavicle -6.08095e-014 -2.3556e-014
rhumerus -31.0633 15.7923 -84.6527
rradius 44.2908
rwrist -14.3607
rhand -21.2015 29.2879
rfingers 7.12502
rthumb 5.17982 -0.628776
lclavicle -6.08095e-014 -2.3556e-014
lhumerus -43.2404 -0.0263884 77.0568
lradius 49.366
lwrist -24.2047
lhand 7.62716 38.6346
lfingers 7.12502
lthumb 32.8725 425.662
rfemur -18.69 34.6249 13.8347
rtibia 26.9389
rfoot -36.0434 -40.3514
rtoes 38.8059
lfemur -10.7818 -36.0273 -14.2909
ltibia 19.32
lfoot -28.0744 33.3784
ltoes 21.0779
2924
root 5.67732 16.633 3.58782 -350.502 -6.41587 0.677918
lowerback -7.68093 -2.74355 -1.03659
upperback -6.04676 -3.60824 0.47729
thorax -1.85876 -1.77658 0.856747
lowerneck 7.69251 -13.3606 -12.07
upperneck 3.87512 -18.671 -0.42312
head 1.07657 -9.49084 1.87735
rclavicle -8.23714e-015 1.35174e-014
rhumerus -31.3445 15.6547 -84.7966
rradius 43.6832
rwrist -14.2963
rhand -21.2539 29.3367
rfingers 7.12502
rthumb 5.12923 -0.581221
lclavicle -8.23714e-015 1.35174e-014
lhumerus -43.6136 0.40836 77.181
lradius 48.7112
lwrist -24.0343
lhand 8.72381 38.358
lfingers 7.12502
lthumb 33.9149 425.161
rfemur -18.8918 34.9666 13.7737
rtibia 26.7851
rfoot -36.0446 -40.6737
rtoes 38.123
lfemur -10.9942 -36.9514 -14.0745
ltibia 19.5733
lfoot -29.4888 33.6494
ltoes 22.3445
2925
root 5.67567 16.6386 3.59111 -350.267 -6.51278 0.529012
lowerback -7.97498 -2.72666 -0.994742
upperback -6.15582 -3.58543 0.513445
thorax -1.81147 -1.76617 0.860515
lowerneck 7.66632 -13.3606 -11.7579
upperneck 4.14396 -18.6316 -0.886407
head 1.08541 -9.47591 1.68002
rclavicle -3.92227e-014 -6.75868e-015
rhumerus -31.4361 15.2807 -84.9086
rradius 42.8685
rwrist -13.8109
rhand -20.6754 29.435
rfingers 7.12502
rthumb 5.68773 -0.468637
lclavicle -3.92227e-014 -6.75868e-015
lhumerus -43.8617 0.951941 77.115
lradius 47.9143
lwrist -24.2097
lhand 4.82319 37.8311
lfingers 7.12502
lthumb 30.2013 425.382
rfemur -19.1458 35.3458 13.7115
rtibia 26.68
rfoot -35.8859 -41.1064
rtoes 37.5833
lfemur -11.2132 -37.6016 -13.8186
ltibia 19.7751
lfoot -31.0375 33.3741
ltoes 24.7503
2926
root 5.67729 16.6305 3.59233 -350.196 -6.58545 0.518776
lowerback -8.03266 -2.75868 -1.03923
upperback -6.22993 -3.62587 0.483758
thorax -1.85556 -1.78538 0.851616
lowerneck 7.49447 -13.3599 -11.3072
upperneck 4.49356 -18.5598 -1.41017
head 1.12286 -9.44692 1.4321
rclavicle 3.96513e-014 9.24349e-015
rhumerus -31.545 15.1835 -85.2002
rradius 42.1622
rwrist -13.7128
rhand -20.7101 29.5464
rfingers 7.12502
rthumb 5.65427 -0.358152
lclavicle 3.96513e-014 9.24349e-015
lhumerus -44.0297 1.48583 76.9127
lradius 47.0876
lwrist -24.4174
lhand 1.97757 36.8943
lfingers 7.12502
lthumb 27.4831 424.909
rfemur -19.1921 35.925 13.577
rtibia 26.547
rfoot -37.3544 -40.6004
rtoes 39.2436
lfemur -11.4493 -38.7183 -13.7151
ltibia 20.0379
lfoot -32.3301 33.8255
ltoes 27.2111
2927
root 5.68027 16.6246 3.59402 -350.11 -6.67879 0.531402
lowerback -8.05856 -2.77943 -1.07452
upperback -6.317 -3.6524 0.46109
thorax -1.93105 -1.79756 0.847808
lowerneck 7.2616 -13.3477 -11.1578
upperneck 4.84784 -18.4905 -1.60514
head 1.23739 -9.42607 1.31939
rclavicle 2.0686e-015 -1.78409e-014
rhumerus -31.7961 15.4904 -85.5763
rradius 41.6794
rwrist -14.2375
rhand -21.515 29.2185
rfingers 7.12502
rthumb 4.87706 -0.705391
lclavicle 2.0686e-015 -1.78409e-014
lhumerus -44.1867 2.02686 76.7741
lradius 46.1724
lwrist -24.544
lhand 0.838817 36.6625
lfingers 7.12502
lthumb 26.3936 424.845
rfemur -19.2608 36.7135 13.3755
rtibia 26.4107
rfoot -39.6909 -39.4564
rtoes 42.1788
lfemur -11.612 -40.1865 -13.6581
ltibia 20.2969
lfoot -33.5514 34.9681
ltoes 28.1105
2928
root 5.67778 16.6334 3.59278 -349.876 -6.83611 0.40502
lowerback -8.21794 -2.72424 -1.0199
upperback -6.44265 -3.58153 0.485681
thorax -1.97794 -1.76313 0.843323
lowerneck 7.24409 -13.3259 -11.3237
upperneck 5.00665 -18.4692 -1.40914
head 1.32877 -9.42601 1.39179
rclavicle -2.1624e-014 -1.39646e-014
rhumerus -32.1006 15.4552 -85.7736
rradius 41.0629
rwrist -14.2462
rhand -21.8264 28.9102
rfingers 7.12502
rthumb 4.57642 -1.02036
lclavicle -2.1624e-014 -1.39646e-014
lhumerus -44.3357 2.55191 76.659
lradius 45.2568
lwrist -24.8461
lhand -0.835666 37.1754
lfingers 7.12502
lthumb 24.7897 425.589
rfemur -19.5851 37.5102 13.1974
rtibia 26.2898
rfoot -41.205 -38.8656
rtoes 43.8823
lfemur -11.7496 -40.8246 -13.4713
ltibia 20.5149
lfoot -34.9398 35.1294
ltoes 29.4983
2929
root 5.67342 16.6372 3.58946 -349.666 -6.94239 0.20969
lowerback -8.33295 -2.66591 -0.893495
upperback -6.55875 -3.51139 0.493163
thorax -2.04446 -1.73177 0.783378
lowerneck 7.25666 -13.3101 -11.4047
upperneck 5.12597 -18.4569 -1.19566
head 1.39641 -9.42712 1.46231
rclavicle 7.36e-014 1.88348e-014
rhumerus -32.4568 15.1011 -85.9202
rradius 40.3545
rwrist -13.731
rhand -21.4089 28.9205
rfingers 7.12502
rthumb 4.97958 -1.001
lclavicle 7.36e-014 1.88348e-014
lhumerus -44.5652 3.13941 76.4299
lradius 44.5326
lwrist -25.2291
lhand 0.0756433 38.2543
lfingers 7.12502
lthumb 25.6628 426.545
rfemur -19.8324 37.9402 13.1701
rtibia 26.1002
rfoot -41.7059 -38.8243
rtoes 44.2328
lfemur -11.997 -41.2995 -13.1658
ltibia 20.8148
lfoot -36.0702 35.1327
ltoes 30.7723
